<?xml version="1.0" encoding="UTF-8" standalone="no"?>
<!-- Created with Inkscape (http://www.inkscape.org/) -->

<svg
   version="1.1"
   id="svg1044"
   width="1092.2667"
   height="1092.2667"
   viewBox="0 0 1092.2667 1092.2667"
   sodipodi:docname="brutus_2.svg"
   inkscape:version="1.2.2 (732a01da63, 2022-12-09)"
   xmlns:inkscape="http://www.inkscape.org/namespaces/inkscape"
   xmlns:sodipodi="http://sodipodi.sourceforge.net/DTD/sodipodi-0.dtd"
   xmlns="http://www.w3.org/2000/svg"
   xmlns:svg="http://www.w3.org/2000/svg">
  <defs
     id="defs1048" />
  <sodipodi:namedview
     id="namedview1046"
     pagecolor="#ffffff"
     bordercolor="#000000"
     borderopacity="0.25"
     inkscape:showpageshadow="2"
     inkscape:pageopacity="0.0"
     inkscape:pagecheckerboard="0"
     inkscape:deskcolor="#d1d1d1"
     showgrid="false"
     inkscape:zoom="0.37948606"
     inkscape:cx="177.87214"
     inkscape:cy="529.66372"
     inkscape:window-width="1920"
     inkscape:window-height="1009"
     inkscape:window-x="-8"
     inkscape:window-y="-8"
     inkscape:window-maximized="1"
     inkscape:current-layer="g1050" />
  <g
     inkscape:groupmode="layer"
     inkscape:label="Image"
     id="g1050">
    <g
       id="g1054"
       transform="matrix(1.6007239,0,0,1.6007239,-328.04425,-175.92728)">
      <g
         id="g1080">
        <path
           style="fill:#fada03;stroke-width:1.06667"
           d="m 319.72258,651.22297 c -38.99208,-23.51225 -61.63443,-65.08146 -58.98432,-108.28962 1.25667,-20.48928 4.05137,-31.62761 11.63237,-46.36108 11.18962,-21.74672 28.70487,-39.02945 50.19465,-49.52832 13.96913,-6.82464 23.77578,-8.93473 39.4218,-8.48237 12.50848,0.36165 13.17783,0.50217 19.79421,4.15531 3.76637,2.07954 7.29024,4.48217 7.83083,5.33918 0.69893,1.10804 -0.61552,4.52079 -4.54997,11.81318 l -5.53286,10.255 -8.16464,0.71476 c -17.97341,1.57346 -30.48629,6.40506 -43.31492,16.72516 -13.88535,11.17018 -21.71188,23.39574 -26.16609,40.87314 -2.6859,10.53892 -2.89582,29.08573 -0.46339,40.94101 4.30136,20.96406 19.21028,42.35371 38.78802,55.6487 10.07682,6.84304 10.13467,5.92939 -1.1756,18.56302 -5.48129,6.12263 -10.68599,11.17835 -11.56599,11.23494 -0.88,0.0565 -4.36485,-1.56432 -7.7441,-3.60201 z m 79.89195,-245.4101 c -9.64563,-4.5915 -18.09075,-6.87952 -25.39242,-6.87952 -4.87819,0 -4.82493,0.36788 -2.50182,-17.2787 4.975,-37.79071 21.30786,-68.99025 51.11892,-97.64889 19.58183,-18.82486 42.65121,-32.59222 68.2792,-40.7477 17.9762,-5.7205 23.2711,-6.53709 46.61682,-7.18939 18.00966,-0.50321 24.00956,-0.28015 33.06666,1.22934 18.23793,3.03961 40.53636,11.16366 57.4648,20.93631 7.58325,4.37775 19.2,12.58789 19.2,13.56959 0,0.41953 -5.70976,6.45767 -12.68837,13.41808 l -12.68836,12.65531 -6.05589,-4.33653 c -8.05941,-5.7712 -34.20108,-16.76807 -46.6123,-19.60811 -13.40084,-3.0665 -37.81693,-3.27419 -51.02175,-0.43401 -35.93944,7.73009 -65.48125,27.16885 -85.25936,56.10136 -14.80708,21.66061 -20.14878,37.1286 -22.49135,65.12838 -0.65977,7.88605 -1.28578,14.61855 -1.39111,14.96108 -0.10528,0.34253 -4.44499,-1.40194 -9.64367,-3.8766 z"
           id="path1068" />
        <path
           style="fill:#9a9998;stroke-width:1.06667"
           d="m 365.57622,704.29684 c 1.89358,-0.23563 5.25358,-0.23951 7.46667,-0.009 2.21308,0.23091 0.66379,0.4237 -3.44288,0.42844 -4.10667,0.004 -5.91737,-0.1842 -4.02379,-0.41983 z m -88.87756,-36.83015 -2.03198,-2.4 2.4,2.03199 c 2.2554,1.90956 2.88558,2.76801 2.03198,2.76801 -0.20241,0 -1.28241,-1.08 -2.4,-2.4 z m 537.70136,-0.8 c 1.06186,-1.17334 2.17065,-2.13334 2.46398,-2.13334 0.29334,0 -0.33545,0.96 -1.39731,2.13334 -1.06185,1.17333 -2.17064,2.13333 -2.46398,2.13333 -0.29333,0 0.33546,-0.96 1.39731,-2.13333 z m -344.80001,0.26704 c 22.73334,-0.16065 59.93334,-0.16065 82.66667,0 22.73334,0.16065 4.13334,0.29208 -41.33333,0.29208 -45.46667,0 -64.06667,-0.13143 -41.33334,-0.29208 z m -102.93333,-0.97348 c 0.73333,-0.2959 1.93333,-0.2959 2.66666,0 0.73334,0.29591 0.13334,0.53802 -1.33333,0.53802 -1.46667,0 -2.06667,-0.24211 -1.33333,-0.53802 z m 343.46668,0 c 0.73333,-0.2959 1.93333,-0.2959 2.66666,0 0.73334,0.29591 0.13334,0.53802 -1.33333,0.53802 -1.46667,0 -2.06667,-0.24211 -1.33333,-0.53802 z m 16.06666,-0.0222 c 0.77,-0.30813 1.69001,-0.27024 2.04445,0.0842 0.35444,0.35444 -0.27556,0.60655 -1.4,0.56023 -1.24261,-0.0512 -1.49536,-0.30393 -0.64445,-0.64443 z m -375.46668,-2.13334 c 0.77,-0.30812 1.69001,-0.27024 2.04445,0.0842 0.35444,0.35445 -0.27556,0.60655 -1.4,0.56024 -1.24261,-0.0512 -1.49536,-0.30394 -0.64445,-0.64444 z M 261.19728,652 c -1.3268,-1.6918 -1.28907,-1.72953 0.40273,-0.40273 1.02666,0.80517 1.86666,1.64517 1.86666,1.86667 0,0.87791 -0.87593,0.31286 -2.26939,-1.46394 z m 567.60275,0.39727 c 0,-0.22149 0.84,-1.06149 1.86666,-1.86667 1.6918,-1.32679 1.72953,-1.28906 0.40273,0.40273 -1.39346,1.7768 -2.26939,2.34185 -2.26939,1.46394 z m -14.93334,-42.20098 c 0,-0.55205 0.47451,-1.29698 1.05445,-1.65541 0.60466,-0.37369 0.78347,0.0545 0.41922,1.00372 -0.70911,1.84791 -1.47367,2.18601 -1.47367,0.65169 z m -297.85424,-12.5507 c 1.32684,-0.25514 3.24684,-0.24545 4.26667,0.0215 1.01983,0.26698 -0.0658,0.47574 -2.41244,0.4639 -2.34666,-0.0118 -3.18106,-0.23029 -1.85423,-0.48542 z M 868.35091,565.7778 c 0.0512,-1.24261 0.30393,-1.49536 0.64443,-0.64445 0.30813,0.77 0.27024,1.69001 -0.0842,2.04445 -0.35444,0.35444 -0.60655,-0.27556 -0.56023,-1.4 z m -646.40002,-5.33333 c 0.0512,-1.24262 0.30393,-1.49536 0.64443,-0.64445 0.30813,0.76999 0.27024,1.69 -0.0842,2.04445 -0.35445,0.35444 -0.60655,-0.27557 -0.56023,-1.4 z m 647.73249,-13.77779 c 0.004,-4.10666 0.19752,-5.65595 0.42843,-3.44288 0.2309,2.21309 0.22703,5.57309 -0.009,7.46667 -0.23564,1.89359 -0.42457,0.0829 -0.41983,-4.02379 z M 221.95089,533.7778 c 0.0512,-1.24262 0.30393,-1.49536 0.64443,-0.64445 0.30813,0.76999 0.27024,1.69 -0.0842,2.04445 -0.35445,0.35444 -0.60655,-0.27557 -0.56023,-1.4 z m 409.5158,0.0259 c 0,-0.91463 0.48783,-1.36145 1.08406,-0.99296 0.59623,0.36849 0.80791,1.11682 0.47038,1.66295 -0.91438,1.47951 -1.55444,1.20364 -1.55444,-0.66999 z m 236.88422,-5.35927 c 0.0512,-1.24261 0.30393,-1.49536 0.64443,-0.64444 0.30813,0.76999 0.27024,1.69 -0.0842,2.04444 -0.35444,0.35445 -0.60655,-0.27556 -0.56023,-1.4 z m -236.80001,-9.6 c 0.0512,-1.24261 0.30394,-1.49536 0.64444,-0.64444 0.30812,0.76999 0.27024,1.69 -0.0842,2.04444 -0.35445,0.35445 -0.60655,-0.27556 -0.56024,-1.4 z m -16.22028,-36.44445 c -1.32679,-1.69179 -1.28907,-1.72952 0.40273,-0.40273 1.7768,1.39347 2.34185,2.2694 1.46394,2.2694 -0.2215,0 -1.0615,-0.84 -1.86667,-1.86667 z M 291.20001,468.93062 c 0,-0.2215 0.84,-1.0615 1.86667,-1.86667 1.69179,-1.32679 1.72952,-1.28907 0.40273,0.40273 -1.39347,1.7768 -2.2694,2.34185 -2.2694,1.46394 z m 396.66395,-7.86394 c -1.3268,-1.6918 -1.28907,-1.72952 0.40273,-0.40273 1.02666,0.80517 1.86666,1.64517 1.86666,1.86667 0,0.87791 -0.87593,0.31286 -2.26939,-1.46394 z m -388.13062,0.39727 c 0,-0.22149 0.84,-1.06149 1.86667,-1.86667 1.6918,-1.32679 1.72952,-1.28906 0.40273,0.40273 -1.39346,1.7768 -2.2694,2.34185 -2.2694,1.46394 z m 376.45261,-9.99727 -2.58593,-2.93333 2.93333,2.58593 c 2.74165,2.41695 3.4225,3.28073 2.58593,3.28073 -0.19106,0 -1.51106,-1.32 -2.93333,-2.93333 z m -413.78594,-7.2 c 1.37786,-1.46667 2.7452,-2.66667 3.03854,-2.66667 0.29333,0 -0.59401,1.2 -1.97188,2.66667 -1.37786,1.46667 -2.7452,2.66667 -3.03853,2.66667 -0.29334,0 0.594,-1.2 1.97187,-2.66667 z m 8.53333,-8.53333 c 1.37787,-1.46667 2.74521,-2.66667 3.03854,-2.66667 0.29333,0 -0.594,1.2 -1.97187,2.66667 -1.37787,1.46666 -2.74521,2.66666 -3.03854,2.66666 -0.29333,0 0.594,-1.2 1.97187,-2.66666 z m 89.34577,1.91225 c 1.32684,-0.25513 3.24684,-0.24545 4.26667,0.0215 1.01983,0.26698 -0.0658,0.47573 -2.41244,0.46389 -2.34666,-0.0118 -3.18106,-0.23028 -1.85423,-0.48542 z m -28.33782,-40.31225 c 0.0218,-1.76 0.2608,-2.35087 0.53124,-1.31304 0.27045,1.03784 0.25266,2.47784 -0.0396,3.2 -0.29219,0.72217 -0.51346,-0.12696 -0.49172,-1.88696 z m 0.94293,-12.88889 c 0.0512,-1.24261 0.30394,-1.49536 0.64444,-0.64445 0.30813,0.77 0.27024,1.69001 -0.0842,2.04445 -0.35444,0.35444 -0.60655,-0.27556 -0.56023,-1.4 z m 417.06668,-2.13333 c 0.0512,-1.24262 0.30394,-1.49536 0.64444,-0.64445 0.30813,0.76999 0.27024,1.69 -0.0842,2.04445 -0.35444,0.35444 -0.60655,-0.27557 -0.56023,-1.4 z M 386.13335,266.13334 c 1.37786,-1.46667 2.7452,-2.66667 3.03853,-2.66667 0.29334,0 -0.594,1.2 -1.97187,2.66667 -1.37786,1.46667 -2.7452,2.66667 -3.03854,2.66667 -0.29333,0 0.59401,-1.2 1.97188,-2.66667 z m 312.39727,0.8 c -1.32679,-1.6918 -1.28906,-1.72952 0.40273,-0.40273 1.02667,0.80517 1.86667,1.64517 1.86667,1.86667 0,0.87791 -0.87593,0.31286 -2.2694,-1.46394 z M 398.40001,253.86667 c 1.06186,-1.17333 2.17065,-2.13333 2.46398,-2.13333 0.29333,0 -0.33546,0.96 -1.39731,2.13333 -1.06186,1.17334 -2.17065,2.13334 -2.46398,2.13334 -0.29333,0 0.33546,-0.96 1.39731,-2.13334 z m 281.99728,-5.06666 c -1.32679,-1.6918 -1.28907,-1.72953 0.40273,-0.40273 1.02667,0.80517 1.86667,1.64517 1.86667,1.86666 0,0.87791 -0.87594,0.31287 -2.2694,-1.46393 z M 565.13335,236.07136 c 0.77,-0.30813 1.69001,-0.27024 2.04445,0.0842 0.35444,0.35444 -0.27556,0.60655 -1.4,0.56023 -1.24261,-0.0512 -1.49536,-0.30393 -0.64445,-0.64444 z m -15.51867,-1.10344 c 1.6214,-0.24518 4.0214,-0.23862 5.33334,0.0145 1.31193,0.25318 -0.0146,0.45378 -2.948,0.44578 -2.93334,-0.009 -4.00673,-0.21517 -2.38534,-0.46034 z m -32.548,-36.20768 c 0.73334,-0.2959 1.93334,-0.2959 2.66667,0 0.73333,0.2959 0.13333,0.53802 -1.33333,0.53802 -1.46667,0 -2.06667,-0.24212 -1.33334,-0.53802 z m 17.61467,-1.12565 c 1.6214,-0.24519 4.0214,-0.23863 5.33333,0.0145 1.31194,0.25319 -0.0147,0.45379 -2.948,0.44579 -2.93333,-0.009 -4.00673,-0.21517 -2.38533,-0.46035 z m 21.86444,0.011 c 1.32684,-0.25513 3.24684,-0.24545 4.26666,0.0216 1.01983,0.26698 -0.0658,0.47573 -2.41243,0.46389 -2.34667,-0.0118 -3.18107,-0.23028 -1.85423,-0.48541 z"
           id="path1066" />
        <path
           style="fill:#ed6652;stroke-width:1.06667"
           d="m 378.45066,665.87229 c 4.86786,-0.1981 12.54786,-0.197 17.06666,0.002 4.51882,0.19945 0.53603,0.36153 -8.85064,0.36017 -9.38667,-10e-4 -13.08387,-0.16453 -8.21602,-0.36262 z m 264.5545,-0.004 c 12.50616,-0.17075 32.66616,-0.17054 44.8,4.8e-4 12.13384,0.17103 1.90153,0.31073 -22.73847,0.31047 -24.64,-2.6e-4 -34.56769,-0.14019 -22.06153,-0.31095 z m 131.39486,-16.67073 c 0,-0.22149 0.84,-1.06149 1.86667,-1.86667 1.6918,-1.32679 1.72953,-1.28906 0.40273,0.40273 -1.39346,1.7768 -2.2694,2.34185 -2.2694,1.46394 z m -434.13334,-7.59727 c 1.37786,-1.46667 2.7452,-2.66667 3.03854,-2.66667 0.29333,0 -0.59401,1.2 -1.97188,2.66667 -1.37786,1.46667 -2.7452,2.66667 -3.03854,2.66667 -0.29333,0 0.59401,-1.2 1.97188,-2.66667 z m 445.86668,-0.93606 c 0,-0.2215 0.84,-1.0615 1.86666,-1.86667 1.6918,-1.3268 1.72953,-1.28907 0.40273,0.40273 -1.39346,1.7768 -2.26939,2.34184 -2.26939,1.46394 z M 488.00995,598.41608 c -0.40571,-0.65645 0.67117,-0.79906 2.87037,-0.38012 4.71603,0.89838 5.12298,1.43072 1.09375,1.43072 -1.82314,0 -3.607,-0.47276 -3.96412,-1.0506 z m 35.99007,-0.78006 c 1.61333,-0.24441 4.25333,-0.24441 5.86666,0 1.61334,0.24439 0.29334,0.44436 -2.93333,0.44436 -3.22667,0 -4.54667,-0.19997 -2.93333,-0.44436 z m 34.66666,0.0576 c 0.73334,-0.29591 1.93334,-0.29591 2.66667,0 0.73333,0.2959 0.13333,0.53801 -1.33333,0.53801 -1.46667,0 -2.06667,-0.24211 -1.33334,-0.53801 z m 45.06667,-14.62967 c 0,-0.22149 0.84,-1.06149 1.86667,-1.86666 1.6918,-1.3268 1.72952,-1.28907 0.40273,0.40273 -1.39346,1.7768 -2.2694,2.34184 -2.2694,1.46393 z m -30.84912,-59.95282 c 0.0512,-1.24261 0.30394,-1.49536 0.64444,-0.64445 0.30813,0.77 0.27024,1.69001 -0.0842,2.04445 -0.35444,0.35444 -0.60655,-0.27556 -0.56024,-1.4 z m 59.73334,-2.13333 c 0.0512,-1.24262 0.30393,-1.49536 0.64443,-0.64445 0.30813,0.76999 0.27024,1.69 -0.0842,2.04445 -0.35444,0.35444 -0.60655,-0.27557 -0.56023,-1.4 z M 320.00001,494.40002 c 1.99017,-2.05334 3.85849,-3.73334 4.15182,-3.73334 0.29333,0 -1.09499,1.68 -3.08515,3.73334 -1.99017,2.05333 -3.85849,3.73333 -4.15182,3.73333 -0.29334,0 1.09498,-1.68 3.08515,-3.73333 z m 494.79728,-5.60001 c -1.32679,-1.69179 -1.28906,-1.72952 0.40273,-0.40273 1.7768,1.39347 2.34185,2.2694 1.46394,2.2694 -0.22149,0 -1.06149,-0.84 -1.86667,-1.86667 z m -207.3306,-24.8 c 1.06185,-1.17333 2.17064,-2.13333 2.46397,-2.13333 0.29334,0 -0.33545,0.96 -1.39731,2.13333 -1.06185,1.17334 -2.17064,2.13334 -2.46398,2.13334 -0.29333,0 0.33546,-0.96 1.39732,-2.13334 z M 529.93335,449.4047 c 0.76999,-0.30813 1.69,-0.27024 2.04445,0.0842 0.35444,0.35444 -0.27557,0.60655 -1.4,0.56023 -1.24262,-0.0512 -1.49536,-0.30393 -0.64445,-0.64444 z m 7.4,0.0222 c 0.73333,-0.2959 1.93333,-0.2959 2.66667,0 0.73333,0.29591 0.13333,0.53802 -1.33334,0.53802 -1.46666,0 -2.06666,-0.24211 -1.33333,-0.53802 z m 33.41755,-21.24912 c 0.0512,-1.24261 0.30393,-1.49536 0.64443,-0.64445 0.30813,0.77 0.27024,1.69001 -0.0842,2.04445 -0.35444,0.35445 -0.60654,-0.27556 -0.56023,-1.4 z m -155.38556,-11.37775 -2.03199,-2.4 2.4,2.03199 c 2.2554,1.90957 2.88559,2.76801 2.03199,2.76801 -0.20242,0 -1.28242,-1.08 -2.4,-2.4 z m 130.50134,-8.9731 c 0.73334,-0.2959 1.93334,-0.2959 2.66667,0 0.73333,0.29591 0.13333,0.53802 -1.33333,0.53802 -1.46667,0 -2.06667,-0.24211 -1.33334,-0.53802 z m 166.83509,-7.8269 c 0,-1.46666 0.24211,-2.06666 0.53802,-1.33333 0.2959,0.73333 0.2959,1.93333 0,2.66667 -0.29591,0.73333 -0.53802,0.13333 -0.53802,-1.33334 z m -1.15087,-15.55555 c 0.0512,-1.24261 0.30394,-1.49536 0.64444,-0.64445 0.30813,0.77 0.27024,1.69001 -0.0842,2.04445 -0.35444,0.35444 -0.60655,-0.27556 -0.56024,-1.4 z M 419.20001,286.40001 c 1.99017,-2.05333 3.85849,-3.73333 4.15182,-3.73333 0.29333,0 -1.09499,1.68 -3.08515,3.73333 -1.99017,2.05333 -3.85849,3.73333 -4.15182,3.73333 -0.29333,0 1.09499,-1.68 3.08515,-3.73333 z m 105.40001,-14.06199 c 0.76999,-0.30812 1.69,-0.27024 2.04444,0.0842 0.35445,0.35445 -0.27556,0.60655 -1.4,0.56024 -1.24261,-0.0512 -1.49536,-0.30394 -0.64444,-0.64444 z m 35.2,0 c 0.76999,-0.30812 1.69,-0.27024 2.04445,0.0842 0.35444,0.35445 -0.27557,0.60655 -1.4,0.56024 -1.24262,-0.0512 -1.49536,-0.30394 -0.64445,-0.64444 z m -21.93334,-1.12205 c 2.78667,-0.21974 7.34667,-0.21974 10.13334,0 2.78666,0.21973 0.50666,0.3995 -5.06667,0.3995 -5.57333,0 -7.85333,-0.17977 -5.06667,-0.3995 z"
           id="path1064" />
        <path
           style="fill:#f74d2c;stroke-width:1.06667"
           d="m 425.33335,665.86785 c 12.46666,-0.17065 32.86666,-0.17065 45.33333,0 12.46667,0.17064 2.26667,0.31026 -22.66667,0.31026 -24.93333,0 -35.13333,-0.13962 -22.66666,-0.31026 z m 105.6,-4.8e-4 c 16.57333,-0.16531 43.69333,-0.16531 60.26667,0 16.57333,0.16531 3.01333,0.30056 -30.13334,0.30056 -33.14666,0 -46.70666,-0.13525 -30.13333,-0.30056 z m 201.7207,-1.22123 c 0.86753,-0.54963 1.00516,-1.08086 0.34122,-1.317 -0.6844,-0.24341 -0.48307,-1.2171 0.52295,-2.52912 1.59282,-2.0773 1.61587,-2.06679 0.87785,0.40025 -0.58907,1.96912 -0.43542,2.33938 0.68968,1.6619 1.19888,-0.72189 1.19608,-0.56157 -0.0163,0.93309 -0.80517,0.99262 -2.00517,1.79741 -2.66667,1.78843 -0.70519,-0.01 -0.60122,-0.39742 0.2513,-0.93755 z m -381.92071,-1.9081 c 0.77,-0.30813 1.69001,-0.27024 2.04445,0.0842 0.35444,0.35444 -0.27556,0.60655 -1.4,0.56023 -1.24261,-0.0512 -1.49536,-0.30394 -0.64445,-0.64444 z m -6.73333,-1.40469 c -0.36258,-0.58666 -0.15091,-1.06666 0.47038,-1.06666 0.62129,0 1.12962,0.48 1.12962,1.06666 0,0.58667 -0.21167,1.06667 -0.47038,1.06667 -0.25871,0 -0.76704,-0.48 -1.12962,-1.06667 z m 400.06859,-0.31267 c 0.40056,-1.05197 0.997,-1.64397 1.32542,-1.31555 0.32841,0.32842 6.8e-4,1.18911 -0.7283,1.91267 -1.05346,1.04561 -1.17598,0.92309 -0.59712,-0.59712 z m -403.27934,-0.77139 c -0.36849,-0.59624 -1.19099,-0.76207 -1.82777,-0.36852 -0.67477,0.41702 -0.85226,0.22122 -0.42546,-0.46936 0.80855,-1.30825 3.86398,-0.54172 3.86398,0.9694 0,1.27116 -0.78338,1.20719 -1.61075,-0.13152 z m -9.05592,-9.04927 c 1.37787,-1.46667 2.74521,-2.66667 3.03854,-2.66667 0.29334,0 -0.594,1.2 -1.97187,2.66667 -1.37787,1.46667 -2.74521,2.66667 -3.03854,2.66667 -0.29333,0 0.59401,-1.2 1.97187,-2.66667 z m 5.33334,-4.13606 c 0,-0.2215 0.84,-1.0615 1.86666,-1.86667 1.6918,-1.3268 1.72953,-1.28907 0.40273,0.40273 -1.39346,1.7768 -2.26939,2.34185 -2.26939,1.46394 z m 451.84929,-8.58147 c 0.32029,-0.83464 1.3583,-1.81529 2.30672,-2.17924 1.41666,-0.54361 1.37244,-0.2728 -0.24779,1.51754 -2.32342,2.56734 -2.85585,2.73845 -2.05893,0.6617 z m 4.68405,-4.84495 c 0,-0.56602 0.95523,-1.54035 2.12272,-2.16517 1.16749,-0.62483 2.00749,-1.65795 1.86667,-2.29584 -0.14083,-0.63789 0.64573,-1.31015 1.74792,-1.49392 1.54364,-0.25737 1.18931,0.50637 -1.54259,3.32497 -3.84082,3.96272 -4.19472,4.18461 -4.19472,2.62996 z m 10.66667,-11.10692 c 0,-0.22149 0.84,-1.06149 1.86667,-1.86667 1.6918,-1.32679 1.72952,-1.28906 0.40273,0.40274 -1.39346,1.7768 -2.2694,2.34184 -2.2694,1.46393 z m -478.99077,-9.99727 -3.67591,-4 4,3.67592 c 2.2,2.02175 4,3.82175 4,4 0,0.81452 -0.90263,0.0471 -4.32409,-3.67592 z m 484.903,1.94038 c -0.33754,-0.54614 -0.20586,-1.24502 0.29259,-1.55308 0.49847,-0.30807 0.9063,0.13876 0.9063,0.99296 0,1.79858 -0.33637,1.95572 -1.19889,0.56012 z m -325.37891,-16.07371 -3.2,-0.81426 2.87038,-0.12621 c 1.57871,-0.0694 3.16704,0.3538 3.52962,0.94047 0.36259,0.58666 0.51092,1.00988 0.32963,0.94047 -0.18129,-0.0694 -1.76963,-0.49263 -3.52963,-0.94047 z m 11.46667,0.33138 c 1.02667,-0.26829 2.70667,-0.26829 3.73334,0 1.02666,0.2683 0.18666,0.48782 -1.86667,0.48782 -2.05333,0 -2.89333,-0.21952 -1.86667,-0.48782 z m 66.73334,-1.06003 c 0.76999,-0.30813 1.69,-0.27024 2.04445,0.0842 0.35444,0.35444 -0.27557,0.60655 -1.4,0.56023 -1.24262,-0.0512 -1.49536,-0.30393 -0.64445,-0.64444 z m -102.20001,-3.47506 c 0,-0.55205 0.47451,-1.29699 1.05446,-1.65541 0.60465,-0.37369 0.78346,0.0545 0.41921,1.00372 -0.70911,1.84791 -1.47367,2.18601 -1.47367,0.65169 z m 150.40001,-17.54028 c 0,-0.22586 1.32,-1.26017 2.93333,-2.29846 l 2.93334,-1.88779 -2.03199,2.29845 c -1.79814,2.03394 -3.83468,3.03652 -3.83468,1.8878 z M 299.81756,560.44447 c 0.0512,-1.24262 0.30393,-1.49536 0.64443,-0.64445 0.30813,0.76999 0.27024,1.69 -0.0842,2.04445 -0.35444,0.35444 -0.60655,-0.27557 -0.56023,-1.4 z m 530.9286,-3.99199 c -0.39685,-1.94648 -0.24819,-2.64786 0.41969,-1.97997 0.56883,0.56883 0.84539,1.92522 0.61456,3.01421 -0.31085,1.46647 -0.57907,1.19825 -1.03425,-1.03424 z m 0.35561,-14.5858 c 0,-1.46666 0.24212,-2.06666 0.53802,-1.33333 0.2959,0.73333 0.2959,1.93333 0,2.66667 -0.2959,0.73333 -0.53802,0.13333 -0.53802,-1.33334 z m -267.26413,0.28206 c -0.3507,-0.35069 -0.63027,-1.15761 -0.62129,-1.79317 0.009,-0.63555 0.48163,-0.43555 1.05033,0.44445 0.86943,1.34534 1.0366,1.28167 1.05034,-0.4 0.0137,-1.67179 -0.55258,-1.90036 -3.45034,-1.39279 -3.01148,0.52747 -3.15927,0.45701 -1.12555,-0.53673 1.29556,-0.63304 3.20105,-0.76905 4.26666,-0.30453 1.05905,0.46167 2.26829,0.76895 2.68717,0.68285 0.41889,-0.0861 0.50177,0.52058 0.18419,1.34819 -0.66108,1.72278 -3.09506,2.8982 -4.04151,1.95173 z m -264.02008,-4.10428 c 0.0512,-1.24261 0.30393,-1.49536 0.64443,-0.64444 0.30813,0.76999 0.27024,1.69 -0.0842,2.04444 -0.35444,0.35445 -0.60655,-0.27556 -0.56023,-1.4 z m 333.48428,-5.06502 c -0.42266,-1.07465 -0.7539,-2.75465 -0.73605,-3.73333 0.0289,-1.58754 0.15169,-1.57453 1.13842,0.12075 0.6083,1.0451 0.93952,2.7251 0.73605,3.73334 -0.33785,1.67414 -0.43659,1.66367 -1.13842,-0.12076 z m -60.33341,-6.04609 c 0,-1.46667 0.24212,-2.06667 0.53802,-1.33333 0.2959,0.73333 0.2959,1.93333 0,2.66666 -0.2959,0.73334 -0.53802,0.13334 -0.53802,-1.33333 z m -7.20309,-17.33333 -2.03199,-2.4 2.4,2.03198 c 1.32,1.11759 2.4,2.19759 2.4,2.4 0,0.8536 -0.85844,0.22342 -2.76801,-2.03198 z m 64.16992,-1.554 c -0.57886,-1.52021 -0.45634,-1.64273 0.59712,-0.59712 0.72898,0.72356 1.05672,1.58426 0.7283,1.91267 -0.32842,0.32842 -0.92485,-0.26358 -1.32542,-1.31555 z m -96.86858,-4.29906 c 3.08,-0.21547 8.12,-0.21547 11.2,0 3.08,0.21547 0.56,0.39176 -5.6,0.39176 -6.16,0 -8.68,-0.17629 -5.6,-0.39176 z m 286.62282,-4.61791 c -0.3867,-0.6257 -0.47433,-1.3664 -0.19472,-1.64601 0.27959,-0.2796 0.79259,0.23234 1.14,1.13764 0.72126,1.87958 0.10645,2.21019 -0.94528,0.50837 z M 372.06668,470.73803 c 0.76999,-0.30813 1.69,-0.27024 2.04445,0.0842 0.35444,0.35444 -0.27557,0.60655 -1.4,0.56024 -1.24262,-0.0512 -1.49536,-0.30394 -0.64445,-0.64444 z m 352.20001,-0.91852 c 0,-0.12372 0.64,-0.7561 1.42222,-1.40529 1.06279,-0.88204 1.42223,-0.82518 1.42223,0.22495 0,0.77291 -0.64,1.40529 -1.42223,1.40529 -0.78222,0 -1.42222,-0.10122 -1.42222,-0.22495 z m -112.8254,-9.6314 c 1.0127,-1.06028 2.13381,-1.63524 2.49136,-1.2777 0.35754,0.35755 -0.47103,1.22506 -1.84127,1.92778 -2.38172,1.22146 -2.41033,1.19285 -0.65009,-0.65008 z m 64.8254,-1.52143 c -0.96138,-0.62129 -1.09294,-1.04052 -0.32962,-1.05034 0.69871,-0.009 1.56704,0.46367 1.92962,1.05034 0.81845,1.3243 0.44919,1.3243 -1.6,0 z m -61.86667,-2.13333 c 0,-0.58667 0.50833,-1.06667 1.12962,-1.06667 0.62129,0 0.83296,0.48 0.47038,1.06667 -0.36258,0.58666 -0.87091,1.06666 -1.12962,1.06666 -0.25871,0 -0.47038,-0.48 -0.47038,-1.06666 z m -198.40001,-6.93334 c 1.54198,-1.85796 3.2,-2.10168 3.2,-0.47037 0,0.62129 -0.48,0.83296 -1.06666,0.47037 -0.58667,-0.36258 -1.06667,-0.15091 -1.06667,0.47038 0,0.62129 -0.53877,1.12962 -1.19727,1.12962 -0.82721,0 -0.78684,-0.49455 0.1306,-1.6 z m 117.06667,-0.17309 c 0.73334,-0.29591 1.93334,-0.29591 2.66667,0 0.73333,0.2959 0.13333,0.53801 -1.33333,0.53801 -1.46667,0 -2.06667,-0.24211 -1.33334,-0.53801 z m -109.7872,-6.04111 c -0.39685,-1.94648 -0.24819,-2.64786 0.41969,-1.97997 0.56883,0.56883 0.84539,1.92522 0.61456,3.01421 -0.31085,1.46647 -0.57907,1.19825 -1.03425,-1.03424 z m 320.17829,-0.74722 c -1.31395,-0.8307 -1.2195,-1.02727 0.54225,-1.12857 1.73933,-0.0999 1.64083,-0.2619 -0.53333,-0.87657 -2.60549,-0.73662 -2.6132,-0.76817 -0.33555,-1.37579 1.55153,-0.41392 2.5442,-0.0666 2.9683,1.0386 0.85636,2.23164 -0.67252,3.58727 -2.64167,2.34233 z m -16.61792,-2.10524 c 0.0795,-1.13559 1.42738,-1.63037 4.64396,-1.70463 l 4.53205,-0.10464 -4.20755,0.42935 c -2.31415,0.23614 -4.40395,1.00322 -4.64397,1.70463 -0.24002,0.7014 -0.38605,0.55528 -0.32449,-0.32472 z m -304.35562,-9.15556 c 0.0512,-1.24261 0.30393,-1.49536 0.64443,-0.64444 0.30813,0.76999 0.27024,1.69 -0.0842,2.04444 -0.35444,0.35445 -0.60655,-0.27556 -0.56023,-1.4 z m 288.00001,-10.66666 c 0.0512,-1.24262 0.30393,-1.49536 0.64443,-0.64445 0.30813,0.76999 0.27024,1.69 -0.0842,2.04445 -0.35444,0.35444 -0.60655,-0.27557 -0.56023,-1.4 z m -87.45958,-2.57778 c 0.0322,-0.88 0.47116,-2.56 0.97536,-3.73334 l 0.91672,-2.13333 0.0587,2.13333 c 0.0322,1.17334 -0.40665,2.85334 -0.97536,3.73334 -0.91911,1.42221 -1.02749,1.42221 -0.97536,0 z m 80.39817,-0.0709 c -1.09447,-1.77089 -0.11212,-2.01646 1.41925,-0.35478 0.75646,0.82083 0.90479,1.49241 0.32961,1.49241 -0.57517,0 -1.36215,-0.51193 -1.74886,-1.13763 z m -139.29221,-4.99573 c -1.32679,-1.6918 -1.28907,-1.72953 0.40273,-0.40273 1.02667,0.80517 1.86667,1.64517 1.86667,1.86667 0,0.8779 -0.87594,0.31286 -2.2694,-1.46394 z m 57.73607,-4.59629 c 0,-0.62129 0.48,-0.83296 1.06666,-0.47038 0.58667,0.36258 1.06667,0.87091 1.06667,1.12962 0,0.25871 -0.48,0.47038 -1.06667,0.47038 -0.58666,0 -1.06666,-0.50833 -1.06666,-1.12962 z m -89.86667,-0.71807 c 2.49333,-0.22456 6.57333,-0.22456 9.06666,0 2.49334,0.22458 0.45334,0.40832 -4.53333,0.40832 -4.98667,0 -7.02667,-0.18374 -4.53333,-0.40832 z m 180.74128,-2.95231 c 0.0218,-1.76 0.2608,-2.35087 0.53124,-1.31303 0.27045,1.03783 0.25267,2.47783 -0.0396,3.2 -0.29219,0.72216 -0.51346,-0.12697 -0.49172,-1.88697 z m -302.97287,-1.6 c 0,-1.46666 0.24211,-2.06666 0.53801,-1.33333 0.29591,0.73333 0.29591,1.93333 0,2.66667 -0.2959,0.73333 -0.53801,0.13333 -0.53801,-1.33334 z m 208.89826,-11.13704 c 0,-0.84538 0.43523,-1.80604 0.96718,-2.13481 0.53196,-0.32877 0.71597,0.3629 0.40893,1.53705 -0.65131,2.49065 -1.37611,2.80549 -1.37611,0.59776 z M 410.8351,389.33335 c 0,-1.46667 0.24211,-2.06667 0.53801,-1.33334 0.29591,0.73334 0.29591,1.93334 0,2.66667 -0.2959,0.73333 -0.53801,0.13333 -0.53801,-1.33333 z m 219.49887,-5.45675 c -0.93996,-1.75633 -0.90981,-2.15743 0.13594,-1.80884 0.73904,0.24634 1.46318,1.26187 1.60919,2.25674 0.35847,2.44234 -0.28697,2.27669 -1.74513,-0.4479 z m -25.10196,-6.54326 -2.03199,-2.4 2.4,2.03199 c 1.32,1.11759 2.4,2.19759 2.4,2.4 0,0.8536 -0.85844,0.22342 -2.76801,-2.03199 z m 100.35726,-18.95073 c -0.36849,-0.59623 -1.11682,-0.80791 -1.66296,-0.47038 -0.54612,0.33753 -0.99296,0.10539 -0.99296,-0.51593 0,-1.7241 2.88907,-1.34511 3.58574,0.47038 0.69627,1.81446 0.083,2.15474 -0.92982,0.51593 z m -222.67971,-0.75244 c 1.89358,-0.23564 5.25358,-0.23951 7.46667,-0.009 2.21308,0.23091 0.66378,0.4237 -3.44288,0.42844 -4.10667,0.004 -5.91738,-0.18419 -4.02379,-0.41983 z m 80.09046,0.0412 c 0.76999,-0.30813 1.69,-0.27024 2.04445,0.0842 0.35444,0.35444 -0.27557,0.60655 -1.4,0.56023 -1.24262,-0.0512 -1.49536,-0.30393 -0.64445,-0.64443 z m 141.36556,-5.41647 c -0.14431,-2.43962 -0.017,-2.56681 0.91054,-0.90944 0.59554,1.06418 0.67065,2.33398 0.16776,2.83627 -0.50262,0.50202 -0.98568,-0.36117 -1.0783,-1.92683 z M 444.80001,314.26395 c 0,-0.2215 0.84,-1.0615 1.86667,-1.86667 1.6918,-1.3268 1.72953,-1.28907 0.40273,0.40273 -1.39346,1.7768 -2.2694,2.34184 -2.2694,1.46394 z m 7.46667,-7.46667 c 0,-0.22149 0.84,-1.06149 1.86667,-1.86667 1.69179,-1.32679 1.72952,-1.28906 0.40273,0.40273 -1.39346,1.7768 -2.2694,2.34185 -2.2694,1.46394 z m 5.86667,-0.66394 c -0.36258,-0.58666 -0.17923,-1.06666 0.40743,-1.06666 0.58667,0 1.36332,0.48 1.7259,1.06666 0.36258,0.58667 0.17923,1.06667 -0.40743,1.06667 -0.58667,0 -1.36332,-0.48 -1.7259,-1.06667 z m 10.22222,-6.70183 c 0.24444,-0.16601 1.40444,-1.00601 2.57778,-1.86667 1.97334,-1.44748 2.02354,-1.42484 0.6694,0.30184 -0.80518,1.02666 -1.96518,1.86666 -2.57779,1.86666 -0.6126,0 -0.91383,-0.13583 -0.66939,-0.30183 z m 198.79245,-7.24897 c -0.27032,-0.43739 0.2169,-0.69129 1.08271,-0.56422 2.22891,0.32714 3.03056,1.35947 1.0557,1.35947 -0.9058,0 -1.86809,-0.35787 -2.13841,-0.79525 z m -182.21115,-3.33729 c 0.73096,-1.18273 3.59648,-1.05913 3.59648,0.15513 0,0.55021 -0.92674,0.93057 -2.05944,0.84525 -1.13269,-0.0853 -1.82436,-0.5355 -1.53704,-1.00038 z m 177.89514,-3.24524 -2.03199,-2.4 2.4,2.03199 c 1.32,1.11759 2.4,2.19759 2.4,2.4 0,0.8536 -0.85844,0.22341 -2.76801,-2.03199 z m -166.45683,-1.61075 c 0.38764,-0.62721 0.10176,-1.38348 -0.63519,-1.6806 -0.80838,-0.32591 -0.59944,-0.57363 0.52669,-0.62444 2.11088,-0.0952 2.49641,1.53402 0.63519,2.68431 -0.72787,0.44986 -0.94325,0.29475 -0.52669,-0.37927 z m 12.95817,-4.52258 c -0.36258,-0.58667 0.11742,-1.06667 1.06667,-1.06667 0.94924,0 1.42924,0.48 1.06666,1.06667 -0.36258,0.58666 -0.84258,1.06666 -1.06666,1.06666 -0.22409,0 -0.70409,-0.48 -1.06667,-1.06666 z m 132.43544,-0.27308 c 0.29925,-0.4842 1.52362,-0.56947 2.72083,-0.18951 1.31574,0.4176 2.5781,0.11833 3.19145,-0.7566 0.8212,-1.17146 0.93125,-1.14237 0.57712,0.15252 -0.26566,0.97134 -1.7334,1.61453 -3.73555,1.63698 -1.81386,0.0204 -3.05311,-0.35919 -2.75385,-0.84339 z m 14.44456,0.0597 c -0.704,-0.704 -1.28,-0.86033 -1.28,-0.3474 0,0.51294 -1.2,-0.19473 -2.66666,-1.5726 -1.46667,-1.37786 -2.66667,-3.00833 -2.66667,-3.62327 0,-0.61495 0.75284,-0.0432 1.67298,1.27044 0.92014,1.31369 2.05599,2.15181 2.52412,1.8625 0.46812,-0.28932 1.70966,0.42265 2.759,1.58215 2.05317,2.26874 1.7735,2.94445 -0.34277,0.82818 z m -12.62534,-2.71426 c 0.43861,-0.73018 1.71996,-1.82129 2.84741,-2.42468 1.67135,-0.89449 1.93152,-0.78856 1.40882,0.5736 -0.3526,0.91888 -0.89764,1.41414 -1.21119,1.1006 -0.31354,-0.31354 -1.30638,0.0257 -2.20631,0.754 -1.30376,1.05502 -1.47418,1.0543 -0.83873,-0.003 z"
           id="path1062" />
        <path
           style="fill:#fb2300;stroke-width:1.06667"
           d="m 424.42982,665.60002 c -51.99257,-0.40244 -69.28822,-0.85276 -70.47091,-1.83481 -0.86206,-0.7158 -3.09546,-1.4179 -4.96313,-1.56022 -1.86767,-0.14231 -3.39577,-0.688 -3.39577,-1.21265 0,-0.52464 -0.72,-0.67761 -1.6,-0.33991 -0.88,0.33768 -1.6,0.20039 -1.6,-0.3051 0,-0.50549 -0.74493,-1.20492 -1.6554,-1.55431 -0.95425,-0.36617 -1.37784,-0.18613 -1.00009,0.42509 0.36043,0.58318 -1.61471,0.21748 -4.38918,-0.81266 -2.77449,-1.03014 -5.21495,-2.38429 -5.42326,-3.00922 -0.2083,-0.62492 4.1357,-5.89156 9.65335,-11.70362 5.51764,-5.81208 9.8181,-11.12506 9.55655,-11.80663 -0.26154,-0.68157 -4.17813,-3.90511 -8.70353,-7.16342 -18.75728,-13.50535 -31.32243,-30.49673 -37.63581,-50.89347 -2.10425,-6.79826 -2.46838,-10.3017 -2.4905,-23.96241 -0.0224,-13.82197 0.31277,-17.08276 2.46206,-23.95406 3.90552,-12.48598 9.09625,-21.70325 16.8525,-29.92529 13.91013,-14.74547 28.40901,-21.921 49.43998,-24.46797 5.57333,-0.67496 10.4459,-1.56293 10.82792,-1.97328 0.38202,-0.41033 2.92874,-4.81279 5.65937,-9.78322 2.73064,-4.97044 5.1497,-9.22207 5.37571,-9.44806 0.22599,-0.22601 2.8561,0.21577 5.84467,0.98172 6.37714,1.63441 13.00675,0.34405 18.28609,-3.55913 10.7493,-7.94731 10.19646,-23.5099 -1.17058,-32.95199 l -4.32489,-3.59249 1.1275,-13.86312 c 1.46539,-18.01761 3.61306,-28.73859 8.09346,-40.40201 5.88343,-15.31574 19.0653,-35.31232 31.42708,-47.6741 11.88726,-11.88726 34.32246,-24.99945 53.46784,-31.24913 20.96005,-6.84206 48.5984,-7.83708 69.11917,-2.4884 12.17647,3.17376 37.89564,14.26032 43.64448,18.81348 2.27105,1.79871 4.5565,3.27038 5.07878,3.27038 0.5223,0 3.53493,-2.61784 6.69476,-5.8174 3.15981,-3.19957 6.15531,-5.56389 6.65665,-5.25405 0.50134,0.30985 0.77962,-0.0723 0.61843,-0.84927 -0.16121,-0.77693 0.34258,-1.28072 1.11952,-1.11952 0.77694,0.1612 1.13353,-0.15848 0.79242,-0.7104 -0.71984,-1.16472 7.84184,-8.82869 9.03739,-8.0898 0.44039,0.27217 1.08249,-0.23949 1.42689,-1.137 0.50519,-1.31648 1.19677,-1.04768 3.57845,1.39084 1.62373,1.66248 2.23223,2.01496 1.35223,0.78329 -0.88,-1.23168 -0.0749,-0.69991 1.78914,1.18169 1.86403,1.88161 3.74051,3.10623 4.16995,2.72136 0.42945,-0.38486 0.4794,0.14026 0.111,1.16693 -0.36839,1.02666 -0.17672,1.86666 0.42593,1.86666 1.47643,0 9.50398,6.5107 9.50398,7.70814 0,0.5231 -0.6,0.60581 -1.33333,0.1838 -0.73334,-0.42202 -0.95945,-0.35645 -0.50247,0.1457 0.45698,0.50215 1.64331,1.03224 2.63628,1.17798 0.99298,0.14574 2.77908,1.60766 3.96913,3.2487 1.19005,1.64106 2.92981,3.75402 3.86613,4.69546 3.62916,3.64898 8.50902,11.71758 7.79019,12.88066 -0.50073,0.81022 -0.27909,0.92805 0.6572,0.34939 1.02372,-0.6327 1.22653,-0.38788 0.73653,0.88906 -0.41448,1.0801 -0.1803,1.66392 0.60499,1.50831 1.56071,-0.30925 11.56714,18.38395 10.88521,20.33487 -0.29436,0.84211 9.7e-4,1.08813 0.75029,0.62502 0.83277,-0.51467 1.00668,-0.16684 0.53333,1.06666 -0.3863,1.00671 -0.29175,1.5766 0.21014,1.26642 1.19014,-0.73555 5.71684,13.04624 4.78194,14.55894 -0.42671,0.69044 -0.21848,0.8502 0.5163,0.39608 0.67731,-0.4186 1.23147,-0.25276 1.23147,0.36853 0,0.62129 -0.72,1.12962 -1.6,1.12962 -0.88,0 -1.6,0.48 -1.6,1.06666 0,0.58667 0.57051,0.94667 1.26779,0.8 2.0594,-0.43317 5.33791,7.72175 5.50798,13.7005 0.0867,3.04667 0.47027,5.35133 0.85247,5.12146 1.59189,-0.95744 3.33621,48.67413 1.76652,50.26311 -0.40623,0.41121 -2.17136,-0.27255 -3.92253,-1.5195 -8.81105,-6.27402 -17.92013,-8.01169 -25.46745,-4.85821 -5.12069,2.13956 -7.49106,4.36378 -10.1016,9.4788 -2.52977,4.95677 -2.25816,13.75193 0.55739,18.04899 2.26813,3.4616 25.71374,23.00825 30.56497,25.48207 4.88708,2.4921 10.17481,2.34376 16.04113,-0.45001 2.64,-1.25727 5.16,-2.32672 5.6,-2.37657 0.44,-0.0498 0.79027,-0.45567 0.77839,-0.90181 -0.012,-0.44614 0.70132,-2.20919 1.58492,-3.91787 0.88359,-1.70867 1.91298,-6.40393 2.28752,-10.43391 0.56563,-6.08598 0.31173,-8.13269 -1.49883,-12.08213 -1.1989,-2.6152 -2.49857,-4.59491 -2.88814,-4.39936 -0.38956,0.19556 -0.86588,0.19556 -1.05848,0 -0.1926,-0.19555 4.2874,-0.42762 9.95555,-0.51569 6.9909,-0.10863 9.61955,0.15525 8.17241,0.82039 -1.62065,0.74489 -1.26739,0.8473 1.46996,0.42615 5.44397,-0.83758 27.86337,6.69049 27.86337,9.35606 0,0.6122 0.30085,0.81224 0.66857,0.44452 1.1099,-1.10991 6.93643,2.42624 6.13483,3.72326 -0.44222,0.71552 -0.24803,0.8863 0.4895,0.43049 2.72362,-1.68329 19.82085,12.82364 27.71599,23.51693 6.11676,8.28464 11.92444,17.60594 11.92444,19.13868 0,0.67923 1.24716,3.46636 2.77146,6.19363 1.5243,2.72727 2.48979,5.69266 2.14555,6.58975 -0.34425,0.89709 -0.20408,1.37037 0.3115,1.05173 1.2822,-0.79244 5.21465,15.9447 6.50082,27.66855 1.20933,11.02345 1.2991,18.01701 0.1957,15.24561 -0.39876,-1.00158 -0.75266,2.11842 -0.78644,6.93333 -0.055,7.84483 -1.97496,17.52797 -4.69666,23.68773 -0.51845,1.17333 -1.22069,3.41976 -1.56054,4.99207 -0.33986,1.57231 -1.37149,3.61231 -2.29251,4.53334 -1.25728,1.25729 -1.32334,1.67866 -0.26507,1.69092 0.96391,0.0112 1.03552,0.26409 0.22652,0.8 -0.65066,0.43102 -1.81784,2.55811 -2.59375,4.72688 -0.7759,2.16877 -1.73197,3.74467 -2.1246,3.50202 -0.39262,-0.24265 -1.3293,1.42362 -2.0815,3.70283 -0.82496,2.49964 -2.20044,4.36179 -3.46639,4.69285 -1.24746,0.32621 -1.79024,1.048 -1.33817,1.77946 0.4331,0.70077 -0.75894,2.79838 -2.76858,4.8718 -1.94104,2.00263 -3.13026,3.64116 -2.64273,3.64116 0.48754,0 -0.48657,1.08 -2.16467,2.4 -1.67812,1.32 -3.38285,2.4 -3.7883,2.4 -0.40545,0 -1.13719,0.43696 -1.62608,0.97102 -0.52785,0.57662 -0.23902,0.61397 0.71111,0.0919 1.89472,-1.04096 -3.40631,4.27375 -12.09645,12.12761 -3.42637,3.09667 -6.82082,5.40349 -7.54321,5.12628 -0.72239,-0.27721 -1.82978,0.32277 -2.46086,1.33329 -1.40254,2.24583 -13.65766,8.78439 -23.18766,12.37147 -8.37134,3.15097 -8.12753,3.12532 -7.3978,0.77836 0.55275,-1.77778 0.52324,-1.77778 -0.61981,0 -1.40447,2.18435 -4.30787,2.42519 -6.42943,0.53334 -1.2521,-1.11654 -1.28829,-1.05722 -0.22259,0.36481 1.38317,1.84564 0.7286,3.10185 -1.61625,3.10185 -0.81685,0 -1.18852,-0.48 -0.82594,-1.06666 0.36258,-0.58667 0.16597,-1.06667 -0.43691,-1.06667 -0.60288,0 -0.80662,-0.84 -0.45278,-1.86667 0.51958,-1.50753 0.32541,-1.45752 -1.00921,0.25992 -1.15726,1.48917 -1.29688,2.34641 -0.4658,2.86004 0.69725,0.43092 0.10978,0.98492 -1.42426,1.34309 -3.56317,0.83193 -222.24685,1.26155 -307.24791,0.60362 z m -85.09375,-20 c 1.3268,-1.6918 1.28907,-1.72953 -0.40273,-0.40273 -1.7768,1.39346 -2.34184,2.2694 -1.46393,2.2694 0.22149,0 1.06149,-0.84 1.86666,-1.86667 z m 218.53061,-47.79889 c 8.50667,-0.31705 16.54667,-0.55737 17.86667,-0.53406 1.32,0.0234 2.4,-0.43224 2.4,-1.01233 0,-0.5801 0.43899,-1.05472 0.97553,-1.05472 3.23849,0 18.96691,-7.21303 23.36591,-10.71556 2.87443,-2.28866 5.41352,-4.04672 5.6424,-3.9068 0.22889,0.13992 2.33616,-1.63119 4.68283,-3.9358 2.34667,-2.30461 3.31075,-3.51182 2.14241,-2.68269 -1.16834,0.82914 -0.0564,-0.87629 2.47087,-3.78984 7.06837,-8.14857 16.40337,-29.6299 14.33231,-32.98095 -0.33266,-0.53827 0.24668,-1.60131 1.28743,-2.36234 1.45711,-1.06546 1.69643,-2.07078 1.04062,-4.37151 -0.4684,-1.64331 -0.92835,-5.14785 -1.0221,-7.78785 -0.19604,-5.52114 -1.36058,-12.37113 -2.6294,-15.46666 -4.17548,-10.18692 -8.98114,-18.94454 -12.67425,-23.09702 -2.42801,-2.73003 -4.41456,-5.41298 -4.41456,-5.96211 0,-0.54914 -1.08,-1.58018 -2.4,-2.2912 -1.32,-0.71101 -3.987,-2.1329 -5.92666,-3.15974 l -3.52667,-1.86699 6.14478,-5.81147 c 3.37962,-3.19631 6.00563,-5.99781 5.83556,-6.22556 -0.17007,-0.22773 0.33178,-0.81023 1.11522,-1.29442 0.78345,-0.48419 1.44803,-1.25785 1.47688,-1.71926 0.13864,-2.21831 1.80625,-5.6389 2.74905,-5.6389 0.58176,0 0.76109,-0.48 0.39851,-1.06667 -0.36258,-0.58667 -0.15091,-1.06667 0.47038,-1.06667 0.62129,0 1.07278,-0.36 1.0033,-0.8 -0.46311,-2.93306 0.27547,-5.63371 1.3578,-4.96481 0.72869,0.45036 0.94323,0.29471 0.52547,-0.38123 -0.3883,-0.62829 -0.25476,-3.46245 0.29675,-6.29815 1.39497,-7.17255 2.22102,-23.85371 1.04762,-21.15581 -0.74058,1.7028 -0.90152,1.3799 -0.79743,-1.6 0.0718,-2.05333 -0.4173,-5.08457 -1.08674,-6.7361 -0.66943,-1.65152 -1.21715,-3.26712 -1.21715,-3.59021 0,-0.3231 -2.00303,-4.97184 -4.45118,-10.33056 -3.87643,-8.48508 -5.35702,-10.51367 -11.46667,-15.71067 -9.64383,-8.20326 -17.66996,-13.33938 -25.19056,-16.12006 -6.06727,-2.24332 -8.26208,-2.36997 -47.95826,-2.76725 -44.25743,-0.44294 -59.99009,0.17084 -63.12453,2.46268 -1.73879,1.27136 -1.9816,3.58978 -2.31897,22.14204 l -0.37684,20.72197 2.92069,2.29742 c 1.97708,1.55517 4.42498,2.29741 7.57683,2.29741 h 4.65615 v 69.86667 69.86667 h -3.23426 c -1.77884,0 -4.8272,0.66558 -6.77414,1.47906 -4.46163,1.86418 -4.89737,4.14793 -4.91319,25.75026 -0.01,13.31985 0.29333,16.47513 1.7931,18.66667 2.56098,3.74227 3.46763,4.18703 8.86182,4.34721 2.64,0.0784 6.24,0.48612 8,0.90607 3.30083,0.78758 45.77665,0.46891 73.06667,-0.54816 z m -29.86666,-71.79771 v -21.47007 h 14.43426 c 9.90806,0 15.51057,0.46183 17.86667,1.47281 4.18302,1.79489 9.83153,7.59065 11.36698,11.6633 3.43008,9.09801 -1.13783,23.9951 -6.35802,20.73504 -1.44156,-0.90027 -2.56949,-0.90009 -4.42249,7.2e-4 -2.24715,1.09242 -2.14212,1.14847 1.08732,0.5804 3.06788,-0.53967 3.5211,-0.35038 3.19651,1.33504 -0.20801,1.08011 -2.0143,2.91939 -4.01397,4.08726 -3.01611,1.76149 -6.15159,2.20369 -18.39653,2.59449 l -14.76073,0.47107 z m 0.67231,-79.33674 c -0.35375,-1.32 -0.64974,-10.44 -0.65775,-20.26667 l -0.0146,-17.86666 h 13.90092 c 15.5445,0 19.23412,0.9713 23.65722,6.22786 8.06466,9.58431 6.15579,22.2502 -4.55895,30.24991 -3.2161,2.40116 -12.7506,4.04119 -23.54145,4.04938 -7.54466,0.005 -8.18947,-0.16997 -8.78543,-2.39382 z m -66.39865,146.87794 c 0.36425,-0.94925 0.18544,-1.37741 -0.41921,-1.00372 -0.57995,0.35842 -1.05446,1.10336 -1.05446,1.65541 0,1.53432 0.76456,1.19622 1.47367,-0.65169 z M 677.86669,458.66668 c -0.36258,-0.58667 -1.23091,-1.05932 -1.92962,-1.05034 -0.76332,0.01 -0.63176,0.42905 0.32962,1.05034 2.04919,1.3243 2.41845,1.3243 1.6,0 z m -260.80001,-8.59629 c 0,-0.62129 0.48,-0.83296 1.06667,-0.47038 0.58666,0.36259 1.06666,0.15092 1.06666,-0.47037 0,-1.63131 -1.65802,-1.38759 -3.2,0.47037 -0.91744,1.10545 -0.95781,1.6 -0.1306,1.6 0.6585,0 1.19727,-0.50833 1.19727,-1.12962 z m 6.63249,-8.66455 c -0.66788,-0.66789 -0.81654,0.0335 -0.41969,1.97997 0.45518,2.23249 0.7234,2.50071 1.03425,1.03424 0.23083,-1.08899 -0.0458,-2.44538 -0.61456,-3.01421 z m 322.96752,0.23108 c 0,-0.49712 -1.00058,-0.6422 -2.2235,-0.32239 -1.62126,0.42397 -1.85173,0.81122 -0.85093,1.42975 1.48532,0.91798 3.07443,0.34562 3.07443,-1.10736 z m -35.53802,-21.57024 c -0.3405,-0.85091 -0.59326,-0.59817 -0.64443,0.64445 -0.0463,1.12443 0.20579,1.75444 0.56023,1.4 0.35444,-0.35445 0.39233,-1.27446 0.0842,-2.04445 z m -6.28659,-2.35908 c -0.75647,-0.82084 -1.54346,-1.33277 -1.74887,-1.13764 -0.63269,0.60103 0.97081,2.63005 2.07848,2.63005 0.57518,0 0.42685,-0.67158 -0.32961,-1.49241 z M 620.0428,391.46521 c 0.30704,-1.17415 0.12303,-1.86582 -0.40893,-1.53705 -0.53195,0.32877 -0.96718,1.28943 -0.96718,2.13481 0,2.20773 0.7248,1.89289 1.37611,-0.59776 z m 12.0363,-7.14071 c -0.14601,-0.99487 -0.87015,-2.0104 -1.60919,-2.25674 -1.04575,-0.34859 -1.0759,0.0525 -0.13594,1.80884 1.45816,2.72459 2.1036,2.89024 1.74513,0.4479 z M 460.26668,306.13334 c -0.36258,-0.58666 -1.13923,-1.06666 -1.7259,-1.06666 -0.58666,0 -0.77001,0.48 -0.40743,1.06666 0.36258,0.58667 1.13923,1.06667 1.7259,1.06667 0.58666,0 0.77001,-0.48 0.40743,-1.06667 z m 11.33607,-8.26666 c 1.35414,-1.72668 1.30394,-1.74932 -0.6694,-0.30184 -1.17334,0.86066 -2.33334,1.70066 -2.57778,1.86667 -0.24444,0.166 0.0567,0.30183 0.66939,0.30183 0.61261,0 1.77261,-0.84 2.57779,-1.86666 z m 16.9306,-8.8663 c 0,-1.21426 -2.86552,-1.33786 -3.59648,-0.15513 -0.28732,0.46488 0.40435,0.91506 1.53704,1.00038 1.1327,0.0853 2.05944,-0.29504 2.05944,-0.84525 z m 9.6,-6.39666 c 0,-0.55204 -0.84,-0.96581 -1.86667,-0.9195 -1.12613,0.0508 -1.33507,0.29853 -0.52669,0.62444 0.737,0.29712 1.02283,1.05339 0.63519,1.6806 -0.41656,0.67402 -0.20118,0.82913 0.52669,0.37927 0.67731,-0.4186 1.23148,-1.21277 1.23148,-1.76481 z m 13.33333,-3.13704 c 0.36258,-0.58667 -0.11742,-1.06667 -1.06666,-1.06667 -0.94925,0 -1.42925,0.48 -1.06667,1.06667 0.36258,0.58666 0.84258,1.06666 1.06667,1.06666 0.22408,0 0.70408,-0.48 1.06666,-1.06666 z m 136.79151,-1.06667 c 0.35413,-1.29489 0.24408,-1.32398 -0.57712,-0.15252 -0.61335,0.87493 -1.87571,1.1742 -3.19145,0.7566 -1.19721,-0.37996 -2.42158,-0.29469 -2.72083,0.18951 -0.29926,0.4842 0.93999,0.86372 2.75385,0.84339 2.00215,-0.0225 3.46989,-0.66564 3.73555,-1.63698 z"
           id="path1060" />
        <path
           style="fill:#5f5c5a;stroke-width:1.06667"
           d="m 388.00001,704.27041 c 6.6,-0.18714 17.4,-0.18714 24,0 6.6,0.18715 1.2,0.34027 -12,0.34027 -13.2,0 -18.6,-0.15312 -12,-0.34027 z m 232.07834,-0.003 c 21.01642,-0.16178 55.09642,-0.1617 75.73334,1.8e-4 20.63692,0.16187 3.44166,0.29423 -38.21167,0.29414 -41.65333,-1.1e-4 -58.53808,-0.13255 -37.52167,-0.29432 z m -229.945,-37.33066 c 7.18666,-0.18454 18.94666,-0.18454 26.13333,0 7.18667,0.18455 1.30667,0.33553 -13.06667,0.33553 -14.37333,0 -20.25333,-0.15098 -13.06666,-0.33553 z m 226.7395,-0.002 c 13.38672,-0.16935 34.98672,-0.16916 48,4.3e-4 13.01328,0.1696 2.0605,0.30816 -24.3395,0.30793 -26.4,-2.3e-4 -37.04722,-0.13899 -23.6605,-0.30836 z m 80.52717,0.0705 c 0.77,-0.30813 1.69001,-0.27024 2.04445,0.0842 0.35444,0.35444 -0.27556,0.60655 -1.4,0.56023 -1.24261,-0.0512 -1.49536,-0.30393 -0.64445,-0.64444 z m -335.51304,-1.07721 c 1.03783,-0.27044 2.47783,-0.25266 3.2,0.0396 0.72216,0.2922 -0.12697,0.51347 -1.88697,0.49173 -1.76,-0.0218 -2.35087,-0.2608 -1.31303,-0.53125 z m -93.12341,-6.46103 -5.83023,-6.13334 6.13333,5.83023 c 5.69806,5.41647 6.62197,6.43644 5.83023,6.43644 -0.1667,0 -2.92671,-2.76 -6.13333,-6.13333 z m 553.63646,-0.8 c 3.18658,-3.22667 6.03379,-5.86667 6.32712,-5.86667 0.29333,0 -2.07388,2.64 -5.26046,5.86667 -3.18658,3.22666 -6.03379,5.86666 -6.32712,5.86666 -0.29334,0 2.07387,-2.64 5.26046,-5.86666 z m -37.33334,-15.8694 c 0,-0.22149 0.84,-1.06149 1.86667,-1.86667 1.69179,-1.32679 1.72952,-1.28906 0.40273,0.40273 -1.39346,1.7768 -2.2694,2.34185 -2.2694,1.46394 z m -483.33608,-3.59727 c -1.32679,-1.6918 -1.28906,-1.72953 0.40273,-0.40273 1.02667,0.80517 1.86667,1.64517 1.86667,1.86667 0,0.8779 -0.87594,0.31286 -2.2694,-1.46394 z m 495.06941,-7.2 c 3.18659,-3.22667 6.0338,-5.86667 6.32713,-5.86667 0.29333,0 -2.07388,2.64 -5.26046,5.86667 -3.18658,3.22667 -6.03379,5.86667 -6.32712,5.86667 -0.29334,0 2.07387,-2.64 5.26045,-5.86667 z m -508.93608,-6.66667 c -1.32679,-1.69179 -1.28906,-1.72952 0.40274,-0.40273 1.7768,1.39346 2.34184,2.2694 1.46393,2.2694 -0.22149,0 -1.06149,-0.84 -1.86667,-1.86667 z m 517.46942,-2.80273 c 0,-0.22149 0.84,-1.06149 1.86666,-1.86667 1.6918,-1.32679 1.72953,-1.28906 0.40274,0.40274 -1.39347,1.7768 -2.2694,2.34184 -2.2694,1.46393 z m -245.06668,-25.9743 c 2.2,-0.23013 5.8,-0.23013 8,0 2.2,0.23013 0.4,0.41841 -4,0.41841 -4.4,0 -6.2,-0.18828 -4,-0.41841 z m -91.0694,-2.1563 c -1.32679,-1.6918 -1.28906,-1.72953 0.40273,-0.40273 1.7768,1.39346 2.34185,2.26939 1.46394,2.26939 -0.22149,0 -1.06149,-0.84 -1.86667,-1.86666 z m -2.89552,-7.73334 c 0,-1.46666 0.24212,-2.06666 0.53802,-1.33333 0.2959,0.73333 0.2959,1.93333 0,2.66667 -0.2959,0.73333 -0.53802,0.13333 -0.53802,-1.33334 z m 144.89826,-11.2 c 1.37787,-1.46666 2.7452,-2.66666 3.03854,-2.66666 0.29333,0 -0.59401,1.2 -1.97187,2.66666 -1.37787,1.46667 -2.74521,2.66667 -3.03854,2.66667 -0.29334,0 0.594,-1.2 1.97187,-2.66667 z m 218.75089,-6.48888 c 0.0512,-1.24261 0.30393,-1.49536 0.64443,-0.64445 0.30813,0.77 0.27024,1.69001 -0.0842,2.04445 -0.35444,0.35444 -0.60655,-0.27556 -0.56023,-1.4 z m -606.93336,-2.13333 c 0.0512,-1.24262 0.30394,-1.49536 0.64444,-0.64445 0.30813,0.76999 0.27024,1.69 -0.0842,2.04445 -0.35445,0.35444 -0.60655,-0.27557 -0.56023,-1.4 z m 37.41754,-3.64445 c 0,-1.46667 0.24211,-2.06667 0.53802,-1.33334 0.2959,0.73334 0.2959,1.93334 0,2.66667 -0.29591,0.73333 -0.53802,0.13333 -0.53802,-1.33333 z m 607.91582,-0.62222 c 0.0512,-1.24261 0.30393,-1.49536 0.64443,-0.64445 0.30813,0.77 0.27024,1.69001 -0.0842,2.04445 -0.35444,0.35444 -0.60655,-0.27556 -0.56023,-1.4 z m -402.13335,-3.2 c 0.0512,-1.24261 0.30394,-1.49536 0.64444,-0.64445 0.30813,0.77 0.27024,1.69001 -0.0842,2.04445 -0.35444,0.35444 -0.60655,-0.27556 -0.56024,-1.4 z M 222.07462,556.267 c 0.0218,-1.76 0.2608,-2.35087 0.53124,-1.31303 0.27045,1.03783 0.25266,2.47783 -0.0396,3.2 -0.29219,0.72216 -0.51346,-0.12697 -0.49172,-1.88697 z m 253.92539,-8.73528 c 1.02667,-0.26829 2.70667,-0.26829 3.73334,0 1.02666,0.2683 0.18666,0.48782 -1.86667,0.48782 -2.05333,0 -2.89333,-0.21952 -1.86667,-0.48782 z m 54.40001,-0.0287 c 1.61333,-0.2444 4.25333,-0.2444 5.86666,0 1.61334,0.2444 0.29334,0.44437 -2.93333,0.44437 -3.22667,0 -4.54667,-0.19997 -2.93333,-0.44437 z m 26.2,-1.03131 c 0.76999,-0.30813 1.69,-0.27024 2.04445,0.0842 0.35444,0.35444 -0.27557,0.60655 -1.4,0.56023 -1.24262,-0.0512 -1.49537,-0.30393 -0.64445,-0.64444 z m 10.86666,-6.0741 c 0,-0.2215 0.84,-1.0615 1.86667,-1.86667 1.6918,-1.3268 1.72953,-1.28907 0.40273,0.40273 -1.39346,1.7768 -2.2694,2.34185 -2.2694,1.46394 z m -345.43159,-2.79727 c 0,-1.46667 0.24211,-2.06667 0.53802,-1.33334 0.2959,0.73334 0.2959,1.93334 0,2.66667 -0.29591,0.73333 -0.53802,0.13333 -0.53802,-1.33333 z m 38.47905,-1.06667 c 0,-2.05333 0.21952,-2.89333 0.48782,-1.86667 0.26829,1.02667 0.26829,2.70667 0,3.73334 -0.2683,1.02666 -0.48782,0.18666 -0.48782,-1.86667 z m 570.50343,1.51111 c 0.0512,-1.24261 0.30394,-1.49536 0.64444,-0.64444 0.30813,0.76999 0.27024,1.69 -0.0842,2.04444 -0.35444,0.35445 -0.60655,-0.27556 -0.56024,-1.4 z m 37.33334,-6.4 c 0.0512,-1.24261 0.30393,-1.49536 0.64443,-0.64444 0.30813,0.76999 0.27024,1.69 -0.0842,2.04444 -0.35444,0.35445 -0.60655,-0.27556 -0.56023,-1.4 z m -236.5537,-5.24444 c 0.006,-3.52 0.20512,-4.83141 0.44252,-2.91423 0.2374,1.91717 0.2325,4.79717 -0.0109,6.4 -0.24339,1.60282 -0.43762,0.0342 -0.43164,-3.48577 z m -64.9652,-16.8 -2.03199,-2.4 2.4,2.03198 c 1.32,1.11759 2.4,2.19759 2.4,2.4 0,0.8536 -0.85845,0.22342 -2.76801,-2.03198 z m -16.16533,-5.80196 c 1.02667,-0.26828 2.70667,-0.26828 3.73334,0 1.02666,0.2683 0.18666,0.48782 -1.86667,0.48782 -2.05333,0 -2.89333,-0.21952 -1.86667,-0.48782 z m 158.95364,-28.8039 c 1.03784,-0.27044 2.47784,-0.25266 3.2,0.0396 0.72217,0.29219 -0.12696,0.51346 -1.88696,0.49172 -1.76001,-0.0218 -2.35087,-0.2608 -1.31304,-0.53124 z M 288.53334,471.467 c 1.06186,-1.17333 2.17065,-2.13333 2.46398,-2.13333 0.29333,0 -0.33546,0.96 -1.39731,2.13333 -1.06186,1.17333 -2.17065,2.13333 -2.46398,2.13333 -0.29333,0 0.33546,-0.96 1.39731,-2.13333 z m 510.36358,-4 -5.83023,-6.13333 6.13333,5.83023 c 5.69806,5.41647 6.62197,6.43643 5.83023,6.43643 -0.16671,0 -2.92671,-2.76 -6.13333,-6.13333 z m -75.16356,1.86667 c 1.06185,-1.17334 2.17064,-2.13334 2.46397,-2.13334 0.29334,0 -0.33545,0.96 -1.39731,2.13334 -1.06185,1.17333 -2.17064,2.13333 -2.46398,2.13333 -0.29333,0 0.33546,-0.96 1.39732,-2.13333 z m -122.13334,0.66393 c 0,-0.22149 0.84,-1.06149 1.86667,-1.86666 1.69179,-1.3268 1.72952,-1.28907 0.40273,0.40273 -1.39347,1.7768 -2.2694,2.34184 -2.2694,1.46393 z m 92.71927,-3.59727 -2.58594,-2.93333 2.93334,2.58593 c 1.61333,1.42227 2.93333,2.74227 2.93333,2.93333 0,0.83657 -0.86379,0.15572 -3.28073,-2.58593 z m -398.31928,-2.4 c 1.06186,-1.17333 2.17064,-2.13333 2.46398,-2.13333 0.29333,0 -0.33546,0.96 -1.39731,2.13333 -1.06186,1.17334 -2.17065,2.13334 -2.46398,2.13334 -0.29334,0 0.33545,-0.96 1.39731,-2.13334 z m 312.00001,-1.46939 c 0,-0.2215 0.84,-1.0615 1.86667,-1.86667 1.69179,-1.32679 1.72952,-1.28907 0.40273,0.40273 -1.39347,1.7768 -2.2694,2.34185 -2.2694,1.46394 z m 121.68422,-10.88616 c 0.0512,-1.24261 0.30393,-1.49536 0.64443,-0.64445 0.30813,0.77 0.27024,1.69001 -0.0842,2.04445 -0.35444,0.35444 -0.60655,-0.27556 -0.56023,-1.4 z m -328.88423,-0.0842 c 0.73334,-0.29591 1.93334,-0.29591 2.66667,0 0.73333,0.2959 0.13333,0.53801 -1.33333,0.53801 -1.46667,0 -2.06667,-0.24211 -1.33334,-0.53801 z m 141.33334,-2.16219 c 1.02667,-0.26829 2.70667,-0.26829 3.73333,0 1.02667,0.2683 0.18667,0.48782 -1.86666,0.48782 -2.05334,0 -2.89334,-0.21952 -1.86667,-0.48782 z m 11.26667,-1.06003 c 0.76999,-0.30813 1.69,-0.27024 2.04444,0.0842 0.35445,0.35444 -0.27556,0.60655 -1.4,0.56023 -1.24261,-0.0512 -1.49536,-0.30393 -0.64444,-0.64443 z m 276.89866,-2.73802 -2.03199,-2.4 2.4,2.03199 c 1.32,1.11759 2.4,2.19759 2.4,2.4 0,0.8536 -0.85844,0.22342 -2.76801,-2.03199 z m -564.69867,-4.40273 c 0,-0.22149 0.84,-1.06149 1.86666,-1.86666 1.6918,-1.3268 1.72953,-1.28907 0.40274,0.40273 -1.39347,1.7768 -2.2694,2.34184 -2.2694,1.46393 z m 480.86668,-2.45925 c 0.76999,-0.30813 1.69,-0.27024 2.04445,0.0842 0.35444,0.35444 -0.27557,0.60655 -1.4,0.56023 -1.24262,-0.0512 -1.49536,-0.30393 -0.64445,-0.64443 z m -395.80001,-1.04445 c 0.73333,-0.2959 1.93333,-0.2959 2.66666,0 0.73334,0.29591 0.13334,0.53802 -1.33333,0.53802 -1.46667,0 -2.06667,-0.24211 -1.33333,-0.53802 z m 16,0 c 0.73333,-0.2959 1.93333,-0.2959 2.66666,0 0.73334,0.29591 0.13334,0.53802 -1.33333,0.53802 -1.46667,0 -2.06667,-0.24211 -1.33333,-0.53802 z m 365.33334,-0.0576 c 1.61334,-0.2444 4.25334,-0.2444 5.86667,0 1.61333,0.2444 0.29333,0.44436 -2.93333,0.44436 -3.22667,0 -4.54667,-0.19996 -2.93334,-0.44436 z m 87.63199,-2.70263 -2.03199,-2.4 2.40001,2.03199 c 2.2554,1.90956 2.88558,2.76801 2.03198,2.76801 -0.20241,0 -1.28241,-1.08 -2.4,-2.4 z m -398.21445,-5.68889 c 0.0512,-1.24261 0.30394,-1.49536 0.64444,-0.64445 0.30812,0.77 0.27024,1.69001 -0.0842,2.04445 -0.35445,0.35444 -0.60655,-0.27556 -0.56024,-1.4 z m 201.83543,-4.71111 c 0,-3.22667 0.19997,-4.54667 0.44436,-2.93334 0.24441,1.61334 0.24441,4.25334 0,5.86667 -0.24439,1.61333 -0.44436,0.29333 -0.44436,-2.93333 z m 89.44878,2.13333 c 0,-1.46667 0.24211,-2.06667 0.53802,-1.33333 0.2959,0.73333 0.2959,1.93333 0,2.66666 -0.29591,0.73334 -0.53802,0.13334 -0.53802,-1.33333 z m -37.50175,-0.40273 c 0,-0.22149 0.84,-1.06149 1.86667,-1.86667 1.69179,-1.32679 1.72952,-1.28906 0.40273,0.40273 -1.39346,1.7768 -2.2694,2.34185 -2.2694,1.46394 z m 13.6,-6.7037 c 0.73333,-0.29591 1.93333,-0.29591 2.66667,0 0.73333,0.2959 0.13333,0.53801 -1.33334,0.53801 -1.46666,0 -2.06666,-0.24211 -1.33333,-0.53801 z m -66.84912,-8.44912 c 0.0512,-1.24262 0.30393,-1.49536 0.64444,-0.64445 0.30812,0.76999 0.27024,1.69 -0.0842,2.04445 -0.35445,0.35444 -0.60655,-0.27557 -0.56024,-1.4 z m -71.28422,-3.31307 c 1.02667,-0.26829 2.70667,-0.26829 3.73334,0 1.02666,0.2683 0.18666,0.48782 -1.86667,0.48782 -2.05333,0 -2.89333,-0.21952 -1.86667,-0.48782 z m -176,-8.53333 c 1.02666,-0.26829 2.70666,-0.26829 3.73333,0 1.02667,0.2683 0.18667,0.48782 -1.86667,0.48782 -2.05333,0 -2.89333,-0.21952 -1.86666,-0.48782 z m 91.55088,-0.9536 c 0.0512,-1.24262 0.30394,-1.49536 0.64444,-0.64445 0.30813,0.76999 0.27024,1.69 -0.0842,2.04445 -0.35444,0.35444 -0.60655,-0.27557 -0.56024,-1.4 z m 246.52374,-4.17778 c 0.0218,-1.76 0.2608,-2.35087 0.53124,-1.31304 0.27045,1.03784 0.25267,2.47784 -0.0396,3.2 -0.29219,0.72217 -0.51346,-0.12696 -0.49172,-1.88696 z m 37.37286,-6.93334 c 0,-2.05333 0.21952,-2.89333 0.48781,-1.86666 0.26829,1.02666 0.26829,2.70666 0,3.73333 -0.26829,1.02667 -0.48781,0.18667 -0.48781,-1.86667 z m -417.22994,0.44445 c 0.0512,-1.24261 0.30394,-1.49536 0.64444,-0.64445 0.30813,0.77 0.27024,1.69001 -0.0842,2.04445 -0.35444,0.35444 -0.60655,-0.27556 -0.56023,-1.4 z m 37.41754,-1.51111 c 0,-1.46667 0.24211,-2.06667 0.53802,-1.33334 0.2959,0.73334 0.2959,1.93334 0,2.66667 -0.29591,0.73333 -0.53802,0.13333 -0.53802,-1.33333 z m 341.24914,-5.95556 c 0.0512,-1.24261 0.30394,-1.49536 0.64444,-0.64445 0.30813,0.77 0.27024,1.69001 -0.0842,2.04445 -0.35444,0.35445 -0.60655,-0.27556 -0.56024,-1.4 z m -340.26668,-2.13333 c 0.0512,-1.24261 0.30394,-1.49536 0.64444,-0.64445 0.30813,0.77 0.27024,1.69001 -0.0842,2.04445 -0.35444,0.35444 -0.60655,-0.27556 -0.56023,-1.4 z m 377.60002,-2.13333 c 0.0512,-1.24262 0.30393,-1.49536 0.64443,-0.64445 0.30813,0.76999 0.27024,1.69 -0.0842,2.04445 -0.35444,0.35444 -0.60655,-0.27557 -0.56023,-1.4 z m -38.4,-3.2 c 0.0512,-1.24262 0.30393,-1.49536 0.64443,-0.64445 0.30813,0.76999 0.27024,1.69 -0.0842,2.04445 -0.35444,0.35444 -0.60655,-0.27557 -0.56023,-1.4 z m -244.26668,-3.2 c 0.0512,-1.24262 0.30394,-1.49536 0.64444,-0.64445 0.30813,0.76999 0.27024,1.69 -0.0842,2.04445 -0.35444,0.35444 -0.60655,-0.27557 -0.56024,-1.4 z m 44.51629,-11.90953 c 9.57028,-0.17696 24.93028,-0.17661 34.13333,7.8e-4 9.20307,0.17739 1.37284,0.32217 -17.4005,0.32175 -18.77333,-4.3e-4 -26.3031,-0.14557 -16.73283,-0.32253 z m 165.39677,-58.66826 c -1.32679,-1.69179 -1.28906,-1.72952 0.40273,-0.40273 1.7768,1.39346 2.34185,2.2694 1.46394,2.2694 -0.22149,0 -1.06149,-0.84 -1.86667,-1.86667 z m -263.33061,-6.13333 c 1.37787,-1.46667 2.74521,-2.66667 3.03854,-2.66667 0.29333,0 -0.594,1.2 -1.97187,2.66667 -1.37787,1.46667 -2.74521,2.66667 -3.03854,2.66667 -0.29333,0 0.59401,-1.2 1.97187,-2.66667 z m 252.23329,-6.13333 -6.36661,-6.66667 6.66666,6.36661 c 6.19277,5.91404 7.15478,6.96672 6.36662,6.96672 -0.16504,0 -3.16504,-3 -6.66667,-6.66666 z m -239.43329,-6.53607 c 0,-0.22149 0.84,-1.06149 1.86667,-1.86667 1.6918,-1.32679 1.72953,-1.28906 0.40273,0.40274 -1.39346,1.7768 -2.2694,2.34184 -2.2694,1.46393 z m 225.99728,-5.7306 c -1.3268,-1.6918 -1.28907,-1.72953 0.40273,-0.40273 1.7768,1.39346 2.34185,2.2694 1.46394,2.2694 -0.2215,0 -1.0615,-0.84 -1.86667,-1.86667 z m 37.97412,-16.53334 -7.43806,-7.73333 7.73334,7.43806 c 7.18272,6.90847 8.22047,8.02861 7.43806,8.02861 -0.1624,0 -3.6424,-3.48 -7.73334,-7.73334 z m -297.03806,1.86667 c 1.99016,-2.05333 3.85848,-3.73333 4.15181,-3.73333 0.29334,0 -1.09498,1.68 -3.08515,3.73333 -1.99016,2.05333 -3.85848,3.73333 -4.15182,3.73333 -0.29333,0 1.09499,-1.68 3.08516,-3.73333 z m 10.66666,-9.4694 c 0,-0.22149 0.84,-1.06149 1.86667,-1.86666 1.6918,-1.3268 1.72952,-1.28907 0.40273,0.40273 -1.39346,1.7768 -2.2694,2.34184 -2.2694,1.46393 z m 108.60001,-13.12592 c 0.76999,-0.30812 1.69,-0.27024 2.04444,0.0842 0.35445,0.35445 -0.27556,0.60655 -1.4,0.56024 -1.24261,-0.0512 -1.49536,-0.30394 -0.64444,-0.64444 z m 7.4,-1.04444 c 0.73333,-0.29591 1.93333,-0.29591 2.66666,0 0.73334,0.2959 0.13334,0.53801 -1.33333,0.53801 -1.46667,0 -2.06667,-0.24211 -1.33333,-0.53801 z m 16.02819,-1.14264 c 2.50884,-0.22532 6.34884,-0.22215 8.53333,0.007 2.18449,0.22919 0.13181,0.41355 -4.56152,0.40968 -4.69334,-0.004 -6.48065,-0.1914 -3.97181,-0.41673 z m 22.37181,0.076 c 0.73333,-0.29591 1.93333,-0.29591 2.66666,0 0.73334,0.2959 0.13334,0.53801 -1.33333,0.53801 -1.46667,0 -2.06667,-0.24211 -1.33333,-0.53801 z M 521.33335,198.7606 c 0.73333,-0.2959 1.93333,-0.2959 2.66667,0 0.73333,0.2959 0.13333,0.53802 -1.33334,0.53802 -1.46666,0 -2.06666,-0.24212 -1.33333,-0.53802 z m 23.46667,-1.13186 c 1.90666,-0.23661 5.02666,-0.23661 6.93333,0 1.90667,0.23662 0.34667,0.43022 -3.46667,0.43022 -3.81333,0 -5.37333,-0.1936 -3.46666,-0.43022 z"
           id="path1058" />
        <path
           style="fill:#000000;stroke-width:1.06667"
           d="m 387.73335,704.02967 c -39.19302,-0.80157 -42.01895,-1.1731 -61.33334,-8.06378 -49.60299,-17.69654 -88.79392,-62.87411 -100.30826,-115.6309 -5.27003,-24.14638 -4.94942,-46.18493 1.0136,-69.67462 12.30544,-48.47398 48.49685,-88.34722 95.61197,-105.33879 l 9.65064,-3.48039 1.26471,-13.98726 c 5.15687,-57.03295 31.69835,-106.75989 76.04084,-142.46669 30.15643,-24.28348 72.48787,-42.15065 108.65877,-45.86248 16.16277,-1.65861 44.70775,-1.39934 56.60107,0.51413 36.71825,5.9074 71.61871,21.309 99.32231,43.83097 10.32868,8.39685 30.40859,29.56566 37.53476,39.57026 22.74464,31.93168 35.87526,68.19326 38.66321,106.77256 0.42822,5.92545 1.20943,10.09499 1.93258,10.31454 0.66759,0.20269 5.77381,1.63152 11.34715,3.17518 50.23721,13.91438 91.10198,58.44352 102.58302,111.7817 1.94316,9.02745 2.35703,14.42207 2.39233,31.18258 0.0611,29.01403 -3.41656,44.70265 -15.36897,69.33334 -7.41449,15.27922 -16.07896,27.40279 -29.22943,40.89865 -23.18252,23.79138 -44.53277,36.08554 -76.00362,43.76532 l -12.64,3.08451 -155.73334,0.51145 c -85.65333,0.2813 -172.05334,0.17767 -192,-0.23028 z m 349.33334,-38.90946 c 22.41427,-5.11916 43.66276,-16.727 59.65119,-32.58686 25.4915,-25.28652 36.6291,-54.20346 34.92103,-90.66667 -1.30232,-27.8013 -10.7726,-51.08089 -28.94913,-71.16199 -12.07769,-13.34323 -33.35975,-26.6563 -49.08976,-30.70829 -6.80923,-1.75403 -29.33333,-3.48729 -29.33333,-2.25723 0,0.40246 1.26217,3.22255 2.80483,6.26684 3.24315,6.40004 3.69158,14.6508 1.07164,19.7172 -2.09059,4.04277 -8.45857,9.64761 -11.95951,10.5263 -4.84874,1.21695 -11.98407,-0.23603 -15.64349,-3.18553 -19.77325,-15.93721 -24.97561,-20.78799 -27.3056,-25.46024 -2.92726,-5.86993 -2.51177,-11.39296 1.2804,-17.02016 6.5369,-9.70011 16.61441,-11.05394 30.14873,-4.05023 4.53482,2.34666 8.46993,4.26666 8.74469,4.26666 0.27477,0 0.2277,-10.68 -0.10464,-23.73333 -0.88042,-34.58561 -4.12355,-49.29957 -16.28104,-73.86667 -9.99387,-20.19498 -16.85764,-29.81966 -32.10492,-45.01893 -31.19168,-31.09347 -70.54765,-49.26629 -110.78447,-51.15531 -24.20854,-1.13653 -46.81395,1.82113 -67.28451,8.80341 -50.01866,17.06082 -92.90583,59.53798 -109.1823,108.13853 -3.83478,11.45043 -7.53316,31.35694 -7.53316,40.54722 0,6.78922 0.72227,7.439 8.30391,7.47052 10.79304,0.0449 33.97095,12.16556 40.06362,20.95094 3.97649,5.73395 4.40331,15.20348 0.93799,20.8105 -5.9009,9.54785 -16.53795,12.02703 -26.90551,6.27087 -16.06054,-8.91694 -19.24397,-10.05098 -29.4757,-10.50023 -36.30372,-1.59403 -73.67955,23.14841 -92.14284,60.99766 -8.65429,17.74108 -9.92684,24.07566 -9.99457,49.75149 -0.0551,20.90101 0.0719,22.29062 2.8755,31.46667 6.01072,19.67248 15.62736,36.46435 28.86936,50.40957 20.73713,21.83839 46.40288,34.38112 74.80158,36.55518 5.86666,0.44912 89.62667,0.68893 186.13334,0.53291 161.21375,-0.26064 176.11649,-0.4321 183.46667,-2.1108 z M 472.8622,596.31646 c -5.35606,-2.29493 -6.1963,-5.55551 -6.1856,-24.0039 0.0126,-21.62048 0.6567,-23.36543 8.79898,-23.83495 l 5.5911,-0.32241 v -70.34426 -70.34426 h -4.20719 c -2.83539,0 -5.12446,-0.789 -7.0204,-2.41983 -2.59839,-2.23505 -2.85827,-3.23725 -3.40307,-13.12419 -0.8474,-15.37858 0.44488,-28.93687 3.00179,-31.49377 1.93564,-1.93565 4.29897,-2.02888 51.43527,-2.02888 42.11149,0 50.26183,0.25141 55.2,1.70277 16.75059,4.9231 32.42629,17.74784 39.63988,32.43057 5.08717,10.35453 7.18506,19.53852 7.20463,31.53973 0.0256,15.68186 -3.7434,25.43636 -14.98918,38.79388 l -6.67936,7.93362 3.64216,2.66967 c 12.69516,9.30551 21.67374,22.57148 25.04114,36.99868 2.58662,11.08202 1.72714,28.47152 -1.91071,38.65833 -7.42543,20.79293 -24.32964,36.7909 -47.77209,45.21101 -6.8187,2.44915 -7.6079,2.48767 -55.98287,2.73202 -28.8258,0.14561 -50.03106,-0.16535 -51.40448,-0.75383 z m 85.56575,-49.70621 c 1.77537,-0.2662 5.07736,-2.00844 7.33776,-3.87166 11.33367,-9.34217 10.6364,-27.05664 -1.39865,-35.53332 -4.46846,-3.14727 -4.77231,-3.20051 -20.45145,-3.58292 l -15.91559,-0.38819 v 22.56787 22.56787 l 13.6,-0.63782 c 7.48,-0.3508 15.05257,-0.85563 16.82793,-1.12183 z m -1.0946,-98.59905 c 7.29678,-2.75614 14.419,-12.64871 14.37658,-19.96869 -0.0482,-8.31402 -6.5004,-17.48732 -13.70825,-19.48943 -2.12758,-0.59098 -9.74833,-1.07718 -16.935,-1.08045 l -13.06666,-0.006 v 21.49545 21.49543 l 13.06666,-0.61883 c 7.18667,-0.34035 14.50667,-1.16274 16.26667,-1.82753 z"
           id="path1056" />
      </g>
    </g>
  </g>
</svg>
